<svg width="138" height="56" viewBox="0 0 138 56" fill="none" xmlns="http://www.w3.org/2000/svg">
<g filter="url(#filter0_d_830_912)">
<rect x="27.2705" y="16.4129" width="16.3857" height="16.3857" rx="3.38769" transform="rotate(45 27.2705 16.4129)" stroke="white" stroke-width="0.967911" shape-rendering="crispEdges"/>
</g>
<g filter="url(#filter1_d_830_912)">
<rect x="36.9883" y="16.4129" width="16.3857" height="16.3857" rx="3.38769" transform="rotate(45 36.9883 16.4129)" stroke="white" stroke-width="0.967911" shape-rendering="crispEdges"/>
</g>
<g filter="url(#filter2_d_830_912)">
<path d="M59.9842 32V24.5781H56.2675V23.6373H64.6302V24.5781H60.925V32H59.9842ZM66.8927 32C66.6371 32 66.401 31.9381 66.1842 31.8142C65.9751 31.6903 65.8086 31.5238 65.6847 31.3147C65.5608 31.0979 65.4989 30.8617 65.4989 30.6062V25.031C65.4989 24.7755 65.5608 24.5432 65.6847 24.3341C65.8086 24.1173 65.9751 23.947 66.1842 23.8231C66.401 23.6992 66.6371 23.6373 66.8927 23.6373H73.8384V24.5781H66.8927C66.7688 24.5781 66.6604 24.6245 66.5674 24.7174C66.4823 24.8026 66.4397 24.9071 66.4397 25.031V30.6062C66.4397 30.7301 66.4823 30.8385 66.5674 30.9314C66.6604 31.0166 66.7688 31.0592 66.8927 31.0592H73.8384V32H66.8927ZM76.4432 32C76.1877 32 75.9515 31.9381 75.7347 31.8142C75.5256 31.6903 75.3592 31.5238 75.2353 31.3147C75.1114 31.0979 75.0494 30.8617 75.0494 30.6062V25.031C75.0494 24.7755 75.1114 24.5432 75.2353 24.3341C75.3592 24.1173 75.5256 23.947 75.7347 23.8231C75.9515 23.6992 76.1877 23.6373 76.4432 23.6373H82.0184C82.2739 23.6373 82.5062 23.6992 82.7153 23.8231C82.9321 23.947 83.1024 24.1173 83.2263 24.3341C83.3502 24.5432 83.4122 24.7755 83.4122 25.031V25.3679H82.4714V25.031C82.4714 24.9071 82.4249 24.8026 82.332 24.7174C82.2468 24.6245 82.1423 24.5781 82.0184 24.5781H76.4432C76.3193 24.5781 76.2109 24.6245 76.118 24.7174C76.0328 24.8026 75.9902 24.9071 75.9902 25.031V30.6062C75.9902 30.7301 76.0328 30.8385 76.118 30.9314C76.2109 31.0166 76.3193 31.0592 76.4432 31.0592H82.0184C82.1423 31.0592 82.2468 31.0166 82.332 30.9314C82.4249 30.8385 82.4714 30.7301 82.4714 30.6062V28.5388H80.4039V27.5863H83.4122V30.6062C83.4122 30.8617 83.3502 31.0979 83.2263 31.3147C83.1024 31.5238 82.9321 31.6903 82.7153 31.8142C82.5062 31.9381 82.2739 32 82.0184 32H76.4432ZM87.095 32L84.4468 25.2633H85.4689L87.5132 30.281L89.6851 25.2633H90.9396L93.2509 30.2694L95.1558 25.2633H96.1895L93.6458 32H92.8212L90.3124 26.4364L87.9313 32H87.095ZM98.2542 32C97.9986 32 97.7625 31.9381 97.5456 31.8142C97.3366 31.6825 97.1662 31.5122 97.0346 31.3031C96.9107 31.0863 96.8487 30.8501 96.8487 30.5946V26.6687C96.8487 26.4132 96.9107 26.1809 97.0346 25.9719C97.1662 25.755 97.3366 25.5847 97.5456 25.4608C97.7625 25.3292 97.9986 25.2633 98.2542 25.2633H102.296C102.559 25.2633 102.796 25.3292 103.005 25.4608C103.221 25.5847 103.392 25.755 103.516 25.9719C103.647 26.1809 103.713 26.4132 103.713 26.6687V30.5946C103.713 30.8501 103.647 31.0863 103.516 31.3031C103.392 31.5122 103.221 31.6825 103.005 31.8142C102.796 31.9381 102.559 32 102.296 32H98.2542ZM98.2542 31.0476H102.296C102.42 31.0476 102.525 31.005 102.61 30.9198C102.703 30.8269 102.749 30.7185 102.749 30.5946V26.6687C102.749 26.5449 102.703 26.4403 102.61 26.3551C102.525 26.2622 102.42 26.2158 102.296 26.2158H98.2542C98.1303 26.2158 98.0219 26.2622 97.9289 26.3551C97.8438 26.4403 97.8012 26.5449 97.8012 26.6687V30.5946C97.8012 30.7185 97.8438 30.8269 97.9289 30.9198C98.0219 31.005 98.1303 31.0476 98.2542 31.0476ZM104.789 32V26.6687C104.789 26.4132 104.851 26.1809 104.975 25.9719C105.106 25.755 105.277 25.5847 105.486 25.4608C105.703 25.3292 105.939 25.2633 106.194 25.2633H109.981V26.2158H106.194C106.07 26.2158 105.962 26.2622 105.869 26.3551C105.784 26.4403 105.741 26.5449 105.741 26.6687V32H104.789ZM112.138 32C111.882 32 111.646 31.9381 111.429 31.8142C111.22 31.6825 111.05 31.5122 110.918 31.3031C110.794 31.0863 110.732 30.8501 110.732 30.5946V23.0565H111.685V30.5946C111.685 30.7185 111.728 30.8269 111.813 30.9198C111.906 31.005 112.014 31.0476 112.138 31.0476H113.276V32H112.138ZM115.374 32C115.111 32 114.871 31.9381 114.654 31.8142C114.445 31.6825 114.275 31.5122 114.143 31.3031C114.019 31.0863 113.957 30.8501 113.957 30.5946V26.6687C113.957 26.4132 114.019 26.1809 114.143 25.9719C114.275 25.755 114.445 25.5847 114.654 25.4608C114.871 25.3292 115.111 25.2633 115.374 25.2633H119.869V23.0565H120.822V32H115.374ZM115.374 31.0476H119.416C119.54 31.0476 119.645 31.005 119.73 30.9198C119.823 30.8269 119.869 30.7185 119.869 30.5946V26.6687C119.869 26.5449 119.823 26.4403 119.73 26.3551C119.645 26.2622 119.54 26.2158 119.416 26.2158H115.374C115.25 26.2158 115.142 26.2622 115.049 26.3551C114.964 26.4403 114.921 26.5449 114.921 26.6687V30.5946C114.921 30.7185 114.964 30.8269 115.049 30.9198C115.142 31.005 115.25 31.0476 115.374 31.0476Z" fill="white" fill-opacity="0.929412" shape-rendering="crispEdges"/>
</g>
<defs>
<filter id="filter0_d_830_912" x="-0.14134" y="0.587175" width="54.8237" height="54.8237" filterUnits="userSpaceOnUse" color-interpolation-filters="sRGB">
<feFlood flood-opacity="0" result="BackgroundImageFix"/>
<feColorMatrix in="SourceAlpha" type="matrix" values="0 0 0 0 0 0 0 0 0 0 0 0 0 0 0 0 0 0 127 0" result="hardAlpha"/>
<feOffset/>
<feGaussianBlur stdDeviation="8.37243"/>
<feComposite in2="hardAlpha" operator="out"/>
<feColorMatrix type="matrix" values="0 0 0 0 1 0 0 0 0 1 0 0 0 0 1 0 0 0 0.9 0"/>
<feBlend mode="normal" in2="BackgroundImageFix" result="effect1_dropShadow_830_912"/>
<feBlend mode="normal" in="SourceGraphic" in2="effect1_dropShadow_830_912" result="shape"/>
</filter>
<filter id="filter1_d_830_912" x="9.57643" y="0.587175" width="54.8237" height="54.8237" filterUnits="userSpaceOnUse" color-interpolation-filters="sRGB">
<feFlood flood-opacity="0" result="BackgroundImageFix"/>
<feColorMatrix in="SourceAlpha" type="matrix" values="0 0 0 0 0 0 0 0 0 0 0 0 0 0 0 0 0 0 127 0" result="hardAlpha"/>
<feOffset/>
<feGaussianBlur stdDeviation="8.37243"/>
<feComposite in2="hardAlpha" operator="out"/>
<feColorMatrix type="matrix" values="0 0 0 0 1 0 0 0 0 1 0 0 0 0 1 0 0 0 0.9 0"/>
<feBlend mode="normal" in2="BackgroundImageFix" result="effect1_dropShadow_830_912"/>
<feBlend mode="normal" in="SourceGraphic" in2="effect1_dropShadow_830_912" result="shape"/>
</filter>
<filter id="filter2_d_830_912" x="39.5227" y="6.31178" width="98.0434" height="42.4331" filterUnits="userSpaceOnUse" color-interpolation-filters="sRGB">
<feFlood flood-opacity="0" result="BackgroundImageFix"/>
<feColorMatrix in="SourceAlpha" type="matrix" values="0 0 0 0 0 0 0 0 0 0 0 0 0 0 0 0 0 0 127 0" result="hardAlpha"/>
<feOffset/>
<feGaussianBlur stdDeviation="8.37243"/>
<feComposite in2="hardAlpha" operator="out"/>
<feColorMatrix type="matrix" values="0 0 0 0 1 0 0 0 0 1 0 0 0 0 1 0 0 0 0.9 0"/>
<feBlend mode="normal" in2="BackgroundImageFix" result="effect1_dropShadow_830_912"/>
<feBlend mode="normal" in="SourceGraphic" in2="effect1_dropShadow_830_912" result="shape"/>
</filter>
</defs>
</svg>
